<svg width="40" height="40" viewBox="0 0 100 100" fill="none" xmlns="http://www.w3.org/2000/svg"><g clip-path="url(#clip0_6973_248115)"><rect width="100" height="100" rx="50" fill="white"/><path d="M49.5935 59.3496C54.5326 59.3496 58.5366 55.3456 58.5366 50.4065C58.5366 45.4674 54.5326 41.4634 49.5935 41.4634C44.6544 41.4634 40.6504 45.4674 40.6504 50.4065C40.6504 55.3456 44.6544 59.3496 49.5935 59.3496Z" fill="#1F1F1F"/><path d="M60.7724 28.4553H38.4146C35.1626 28.4553 32.3171 29.4716 30.4878 31.3008C28.6585 33.1301 27.6423 35.9756 27.6423 39.2276V61.5854C27.6423 64.8374 28.6585 67.6829 30.6911 69.7155C32.7236 71.5447 35.3659 72.561 38.6179 72.561H60.7724C64.0244 72.561 66.8699 71.5447 68.6992 69.7155C70.7317 67.8862 71.748 65.0407 71.748 61.7886V39.4309C71.748 36.1789 70.7317 33.5366 68.9024 31.5041C66.8699 29.4716 64.2276 28.4553 60.7724 28.4553ZM49.5935 64.2276C41.8699 64.2276 35.7724 57.9268 35.7724 50.4065C35.7724 42.6829 42.0732 36.5854 49.5935 36.5854C57.1138 36.5854 63.6179 42.6829 63.6179 50.4065C63.6179 58.1301 57.3171 64.2276 49.5935 64.2276ZM64.0244 39.2276C62.1951 39.2276 60.7724 37.8049 60.7724 35.9756C60.7724 34.1463 62.1951 32.7236 64.0244 32.7236C65.8537 32.7236 67.2764 34.1463 67.2764 35.9756C67.2764 37.8049 65.8537 39.2276 64.0244 39.2276Z" fill="#1F1F1F"/><path d="M50 0C22.3577 0 0 22.3577 0 50C0 77.6423 22.3577 100 50 100C77.6423 100 100 77.6423 100 50C100.203 22.3577 77.6423 0 50 0ZM76.626 61.7886C76.626 66.4634 75 70.5285 72.1545 73.374C69.3089 76.2195 65.2439 77.6423 60.7724 77.6423H38.6179C34.1463 77.6423 30.0813 76.2195 27.2358 73.374C24.187 70.5285 22.7642 66.4634 22.7642 61.7886V39.4309C22.7642 30.0813 29.065 23.5772 38.6179 23.5772H60.9756C65.6504 23.5772 69.5122 25.2033 72.3577 28.0488C75.2032 30.8943 76.626 34.7561 76.626 39.4309V61.7886V61.7886Z" fill="#1F1F1F"/></g><defs><clipPath id="clip0_6973_248115"><rect width="100" height="100" rx="50" fill="white"/></clipPath></defs></svg>