<svg width="40" height="40" viewBox="0 0 100 100" fill="none" xmlns="http://www.w3.org/2000/svg"><rect width="100" height="100" rx="50" fill="#1F1F1F"/><path d="M38.5 37.5H28V72H38.5V37.5Z" fill="white"/><path d="M64.0045 37.5C58 37.5 56.335 39.468 55 42V37.5H44.5V72H55V52.5C55 49.5 55 46.5 60.25 46.5C65.5 46.5 65.5 49.5 65.5 52.5V72H76V52.5C76 43.5 74.5 37.5 64.0045 37.5Z" fill="white"/><path d="M33.25 34.5C36.1495 34.5 38.5 32.1495 38.5 29.25C38.5 26.3505 36.1495 24 33.25 24C30.3505 24 28 26.3505 28 29.25C28 32.1495 30.3505 34.5 33.25 34.5Z" fill="white"/></svg>