<svg width="40" height="40" viewBox="0 0 100 100" fill="none" xmlns="http://www.w3.org/2000/svg"><rect width="100" height="100" rx="50" fill="#1F1F1F"/><path d="M75 34.6178C73.4015 35.5058 71.4479 36.0386 69.6718 36.2162C71.6255 34.973 73.0463 33.0193 73.7568 30.7104C71.9807 31.7761 70.027 32.6641 67.7181 33.1969C65.9421 31.2432 63.6332 30 60.9691 30C55.8185 30 51.556 34.4402 51.556 40.1236C51.556 40.834 51.556 41.722 51.7336 42.4324C43.9189 42.0772 36.9923 37.9923 32.3745 31.9537C31.4865 33.3745 31.1313 35.1506 31.1313 37.1042C31.1313 40.6564 32.7297 43.6757 35.2162 45.4517C33.6178 45.4517 32.1969 44.9189 30.9537 44.2085V44.3861C30.9537 49.1815 34.1506 53.2664 38.4131 54.332C37.7027 54.5097 36.8147 54.6873 35.9266 54.6873C35.3938 54.6873 34.6834 54.6873 34.1506 54.5097C35.3938 58.5946 38.7683 61.4363 42.8533 61.4363C39.6564 64.1004 35.5714 65.6988 31.3089 65.6988C30.5985 65.6988 29.888 65.6988 29 65.5212C33.0849 68.3629 38.0579 70.139 43.3861 70.139C60.6139 70.139 70.027 54.8649 70.027 41.5444C70.027 41.1892 70.027 40.6564 70.027 40.3012C72.1583 38.5251 73.7568 36.749 75 34.6178Z" fill="white"/></svg>