<svg width="40" height="40" viewBox="0 0 100 100" fill="none" xmlns="http://www.w3.org/2000/svg"><rect width="100" height="100" rx="50" fill="white"/><path fill-rule="evenodd" clip-rule="evenodd" d="M42.9417 77.2H54.1817V49.9967H61.68L62.6733 40.6233H54.1817L54.1933 35.93C54.1933 33.4867 54.4267 32.175 57.9333 32.175H62.62V22.8H55.12C46.1117 22.8 42.9417 27.3483 42.9417 34.995V40.6233H37.3267V49.9983H42.9417V77.2V77.2ZM50 100C22.3867 100 0 77.6133 0 50C0 22.385 22.3867 0 50 0C77.6133 0 100 22.385 100 50C100 77.6133 77.6133 100 50 100Z" fill="#1F1F1F"/></svg>